<svg xmlns="http://www.w3.org/2000/svg" version="1.1" xmlns:xlink="http://www.w3.org/1999/xlink" xmlns:svgjs="http://svgjs.dev/svgjs" width="1000" height="419" viewBox="0 0 1000 419"><g transform="matrix(1,0,0,1,-0.6060530733043947,0.45073199601853275)"><svg viewBox="0 0 396 166" data-background-color="#ffffff" preserveAspectRatio="xMidYMid meet" height="419" width="1000" xmlns="http://www.w3.org/2000/svg" xmlns:xlink="http://www.w3.org/1999/xlink"><g id="tight-bounds" transform="matrix(1,0,0,1,0.23999788572365333,-0.17857162610758337)"><svg viewBox="0 0 395.52 166.3571363739144" height="166.3571363739144" width="395.52"><g><svg viewBox="0 0 673.1709631314397 283.13813136280396" height="166.3571363739144" width="395.52"><g transform="matrix(1,0,0,1,277.65096313143977,71.21120818754449)"><svg viewBox="0 0 395.52 140.715714987715" height="140.715714987715" width="395.52"><g id="textblocktransform"><svg viewBox="0 0 395.52 140.715714987715" height="140.715714987715" width="395.52" id="textblock"><g><svg viewBox="0 0 395.52 140.715714987715" height="140.715714987715" width="395.52"><g transform="matrix(1,0,0,1,0,0)"><svg width="395.52" viewBox="2.3499999046325684 -35.599998474121094 101.73999786376953 36.19999694824219" height="140.715714987715" data-palette-color="#ffffff"><g class="undefined-text-0" data-fill-palette-color="primary" id="text-0"><path d="M18.75 0.6L18.75 0.6Q13.85 0.6 10.15-1.68 6.45-3.95 4.4-8.03 2.35-12.1 2.35-17.45L2.35-17.45Q2.35-22.8 4.42-26.9 6.5-31 10.33-33.3 14.15-35.6 19.35-35.6L19.35-35.6Q25.25-35.6 29.18-32.75 33.1-29.9 34.25-24.9L34.25-24.9 29.4-24.9Q28.7-28.05 26.08-29.9 23.45-31.75 19.35-31.75L19.35-31.75Q15.5-31.75 12.65-30.03 9.8-28.3 8.22-25.1 6.65-21.9 6.65-17.45L6.65-17.45Q6.65-13 8.2-9.8 9.75-6.6 12.5-4.88 15.25-3.15 18.9-3.15L18.9-3.15Q24.5-3.15 27.35-6.43 30.2-9.7 30.6-15.4L30.6-15.4 20.5-15.4 20.5-18.7 34.9-18.7 34.9 0 31.05 0 30.7-5.75Q28.8-2.7 26.05-1.05 23.3 0.6 18.75 0.6ZM45.75 0L41.55 0 41.55-35 45.75-35 45.75 0ZM57.35 0L53.15 0 53.15-35 74.45-35 74.45-31.55 57.35-31.55 57.35-19.25 71.9-19.25 71.9-15.85 57.35-15.85 57.35 0ZM92.74 0L88.54 0 88.54-13.3 77.14-35 81.89-35 90.64-17.3 99.39-35 104.09-35 92.74-13.3 92.74 0Z" fill="#ffffff" data-fill-palette-color="primary"></path></g></svg></g></svg></g></svg></g></svg></g><g><svg viewBox="0 0 244.43135999999998 283.13813136280396" height="283.13813136280396" width="244.43135999999998"><g><svg xmlns="http://www.w3.org/2000/svg" xmlns:xlink="http://www.w3.org/1999/xlink" version="1.1" x="0" y="0" viewBox="9.63800048828125 3.246999979019165 80.7239990234375 93.50699615478516" enable-background="new 0 0 100 100" xml:space="preserve" height="283.13813136280396" width="244.43135999999998" class="icon-icon-0" data-fill-palette-color="accent" id="icon-0"><g fill="#ffffff" data-fill-palette-color="accent"><g fill="#ffffff" data-fill-palette-color="accent"><polygon points="36.703,11.011 9.638,26.636 9.638,38.757 36.703,23.131 63.767,38.757 63.767,26.636   " fill="#ffffff" data-fill-palette-color="accent"></polygon></g><g fill="#ffffff" data-fill-palette-color="accent"><polygon points="63.298,89.092 36.233,73.467 36.233,61.348 63.298,76.973 90.362,61.348 90.362,73.467   " fill="#ffffff" data-fill-palette-color="accent"></polygon></g><g fill="#ffffff" data-fill-palette-color="accent"><polygon points="9.638,42.012 36.703,26.386 47.198,32.446 20.134,48.072 20.134,79.324 9.638,73.264   " fill="#ffffff" data-fill-palette-color="accent"></polygon></g><g fill="#ffffff" data-fill-palette-color="accent"><polygon points="77.083,18.872 50.018,3.247 39.522,9.307 66.586,24.932 66.586,56.184 77.083,50.124   " fill="#ffffff" data-fill-palette-color="accent"></polygon></g><g fill="#ffffff" data-fill-palette-color="accent"><polygon points="23.01,81.127 23.011,49.876 33.507,43.816 33.507,75.068 60.571,90.693 50.075,96.754   " fill="#ffffff" data-fill-palette-color="accent"></polygon></g><g fill="#ffffff" data-fill-palette-color="accent"><polygon points="90.362,58.092 90.362,26.84 79.866,20.78 79.866,52.031 52.802,67.658 63.298,73.719   " fill="#ffffff" data-fill-palette-color="accent"></polygon></g></g></svg></g></svg></g></svg></g><defs></defs></svg><rect width="395.52" height="166.3571363739144" fill="none" stroke="none" visibility="hidden"></rect></g></svg></g></svg>